<svg xmlns="http://www.w3.org/2000/svg" viewBox="0 0 1200 800"><rect width="1200" height="800" fill="#f7e5bd"/><ellipse cx="600" cy="470" rx="430" ry="260" fill="#fff9ed"/><g fill="#f5d994" stroke="#b58035" stroke-width="6"><ellipse cx="370" cy="415" rx="82" ry="48"/><ellipse cx="520" cy="360" rx="82" ry="48"/><ellipse cx="680" cy="380" rx="82" ry="48"/><ellipse cx="805" cy="465" rx="82" ry="48"/><ellipse cx="600" cy="520" rx="82" ry="48"/><ellipse cx="455" cy="550" rx="82" ry="48"/></g><g fill="#6b7f3a"><path d="M300 520c70-60 132-52 186 20-70 8-128 0-186-20z"/><path d="M720 300c58-58 112-54 160 8-60 10-110 6-160-8z"/></g><g fill="#b96d28" opacity=".6"><circle cx="520" cy="470" r="18"/><circle cx="710" cy="560" r="15"/><circle cx="840" cy="370" r="16"/></g></svg>
