<svg xmlns="http://www.w3.org/2000/svg" viewBox="0 0 1200 800"><rect width="1200" height="800" fill="#f5d28a"/><path d="M0 560h1200v240H0z" fill="#5b351f"/><ellipse cx="600" cy="510" rx="430" ry="230" fill="#fff6df"/><ellipse cx="600" cy="500" rx="365" ry="180" fill="#c88435"/><g fill="#ffe0a2" stroke="#9a5b22" stroke-width="5"><ellipse cx="390" cy="470" rx="80" ry="38" transform="rotate(-28 390 470)"/><ellipse cx="535" cy="420" rx="85" ry="40" transform="rotate(-16 535 420)"/><ellipse cx="690" cy="425" rx="88" ry="42" transform="rotate(14 690 425)"/><ellipse cx="805" cy="510" rx="84" ry="40" transform="rotate(28 805 510)"/><ellipse cx="565" cy="552" rx="96" ry="45" transform="rotate(7 565 552)"/></g><g fill="#6d7f35"><path d="M250 250c65-80 130-80 190 0-68 14-128 12-190 0z"/><path d="M830 240c72-58 134-48 184 30-66 2-124-8-184-30z"/></g></svg>
