<svg xmlns="http://www.w3.org/2000/svg" viewBox="0 0 1200 800" role="img" aria-labelledby="t d"><title id="t">Sunlit potato harvest</title><desc id="d">A warm photo-style illustration of potatoes on soil with leafy vines.</desc><defs><linearGradient id="sky" x1="0" y1="0" x2="1" y2="1"><stop stop-color="#fff2b8"/><stop offset="1" stop-color="#e2a35a"/></linearGradient><filter id="grain"><feTurbulence type="fractalNoise" baseFrequency=".9" numOctaves="2" stitchTiles="stitch"/><feColorMatrix type="saturate" values="0"/><feComponentTransfer><feFuncA type="table" tableValues="0 .12"/></feComponentTransfer><feBlend in="SourceGraphic" mode="multiply"/></filter></defs><rect width="1200" height="800" fill="url(#sky)"/><path d="M0 470c190-80 340 32 520-38 210-82 420-128 680 16v352H0z" fill="#5a3723"/><g fill="none" stroke="#6f8d3f" stroke-width="16" stroke-linecap="round"><path d="M96 465c110-126 237-125 360-26"/><path d="M688 424c125-118 253-110 396 0"/></g><g fill="#d79b56" stroke="#7a4a2d" stroke-width="9"><ellipse cx="188" cy="568" rx="118" ry="76" transform="rotate(-13 188 568)"/><ellipse cx="392" cy="620" rx="140" ry="86" transform="rotate(8 392 620)"/><ellipse cx="666" cy="548" rx="130" ry="84" transform="rotate(-18 666 548)"/><ellipse cx="906" cy="624" rx="154" ry="95" transform="rotate(11 906 624)"/></g><g fill="#8a5734" opacity=".35"><circle cx="146" cy="543" r="12"/><circle cx="222" cy="587" r="10"/><circle cx="614" cy="522" r="12"/><circle cx="724" cy="566" r="10"/><circle cx="866" cy="604" r="14"/><circle cx="971" cy="651" r="11"/></g><rect width="1200" height="800" filter="url(#grain)" opacity=".55"/></svg>
