<svg xmlns="http://www.w3.org/2000/svg" viewBox="0 0 1200 800"><rect width="1200" height="800" fill="#cbe7f2"/><path d="M120 180h960v520H120z" fill="#8fc6d9" opacity=".8"/><path d="M220 250h760v370H220z" rx="45" fill="#eaf9fc" opacity=".76"/><g fill="none" stroke="#fff" stroke-width="10" opacity=".7"><path d="M260 330c80 60 160-60 240 0s160 60 240 0 160-60 240 0"/><path d="M260 455c80 60 160-60 240 0s160 60 240 0 160-60 240 0"/></g><g fill="#d6a15d" stroke="#70462b" stroke-width="7"><ellipse cx="380" cy="430" rx="95" ry="56"/><ellipse cx="540" cy="380" rx="88" ry="52"/><ellipse cx="690" cy="455" rx="104" ry="60"/><ellipse cx="825" cy="390" rx="90" ry="54"/></g><rect x="820" y="128" width="120" height="500" rx="22" fill="#30333a"/><rect x="845" y="170" width="70" height="130" rx="10" fill="#89e1ff"/><text x="858" y="250" font-size="42" font-family="Arial" fill="#24323a">90°</text></svg>
